# xmcd CD database file generated by OrangeCD 6.2
#
# Track frame offsets:
#	150
#	18517
#	30185
#	48062
#	66437
#	87520
#	108065
#	125890
#	144270
#	161745
#
# Disc length: 2383 seconds
#
# Revision: 1
# Processed by: cddbd v1.5.2PL0 Copyright (c) Steve Scherf et al.
# Submitted via: OrangeCD 6.2
#
DISCID=7d094d0a
DTITLE=Various Artist - Gotta Get It Hits - R&B
DYEAR=1900
DGENRE=Blues
TTITLE0=Boyz II Men - Pass You By
TTITLE1=Sisqo - Got to Get It
TTITLE2=Avant - Let's Make a Deal
TTITLE3=Musiq - Just Friends
TTITLE4=Brian McKnight - Stay or Let it Go
TTITLE5=Montell Jordan - Once Upon a Time
TTITLE6=Mya - Case of the Ex (Whatcha Gonna Do)
TTITLE7=Common - The Light
TTITLE8=Dwayne Wiggins - What's Really Going On (Strange Fruit)
TTITLE9=K-Ci and JoJo - All My Life
EXTD=Added 11-14-2002
EXTT0=
EXTT1=
EXTT2=
EXTT3=
EXTT4=
EXTT5=
EXTT6=
EXTT7=
EXTT8=
EXTT9=
PLAYORDER=
